{
    "asset" : {
        "generator" : "Khronos glTF Blender I/O v3.2.40",
        "version" : "2.0"
    },
    "scene" : 0,
    "scenes" : [
        {
            "name" : "Scene",
            "nodes" : [
                0
            ]
        }
    ],
    "nodes" : [
        {
            "mesh" : 0,
            "name" : "figure_10",
            "rotation" : [
                0.7071068286895752,
                0,
                0,
                0.7071067094802856
            ]
        }
    ],
    "materials" : [
        {
            "doubleSided" : true,
            "name" : "MTL0",
            "pbrMetallicRoughness" : {
                "baseColorFactor" : [
                    0.7919999957084656,
                    0.8199999928474426,
                    0.9330000281333923,
                    1
                ],
                "metallicFactor" : 0
            }
        }
    ],
    "meshes" : [
        {
            "name" : "figure_10",
            "primitives" : [
                {
                    "attributes" : {
                        "POSITION" : 0,
                        "NORMAL" : 1,
                        "TEXCOORD_0" : 2
                    },
                    "indices" : 3,
                    "material" : 0
                }
            ]
        }
    ],
    "accessors" : [
        {
            "bufferView" : 0,
            "componentType" : 5126,
            "count" : 24319,
            "max" : [
                102.83824157714844,
                9.524999618530273,
                102.85801696777344
            ],
            "min" : [
                -102.83824157714844,
                -9.524999618530273,
                -102.85801696777344
            ],
            "type" : "VEC3"
        },
        {
            "bufferView" : 1,
            "componentType" : 5126,
            "count" : 24319,
            "type" : "VEC3"
        },
        {
            "bufferView" : 2,
            "componentType" : 5126,
            "count" : 24319,
            "type" : "VEC2"
        },
        {
            "bufferView" : 3,
            "componentType" : 5123,
            "count" : 71136,
            "type" : "SCALAR"
        }
    ],
    "bufferViews" : [
        {
            "buffer" : 0,
            "byteLength" : 291828,
            "byteOffset" : 0
        },
        {
            "buffer" : 0,
            "byteLength" : 291828,
            "byteOffset" : 291828
        },
        {
            "buffer" : 0,
            "byteLength" : 194552,
            "byteOffset" : 583656
        },
        {
            "buffer" : 0,
            "byteLength" : 142272,
            "byteOffset" : 778208
        }
    ],
    "buffers" : [
        {
            "byteLength" : 920480,
            "uri" : "data:application/octet-stream;base64,"
        }
    ]
}
